<svg width="16" height="16" fill="none" xmlns="http://www.w3.org/2000/svg"><g clip-path="url(#a)"><path d="M8 1.333A6.669 6.669 0 0 1 14.666 8 6.669 6.669 0 0 1 8 14.666 6.669 6.669 0 0 1 1.333 8 6.67 6.67 0 0 1 8 1.333Zm0 1.333A5.332 5.332 0 0 0 2.666 8 5.332 5.332 0 0 0 8 13.333 5.332 5.332 0 0 0 13.333 8 5.332 5.332 0 0 0 8 2.666Zm0 2c1.213 0 2.275.649 2.858 1.619l-1.142.686a2 2 0 1 0-.001 2.058l1.143.685A3.332 3.332 0 0 1 4.666 8 3.335 3.335 0 0 1 8 4.666Z" fill="#000"/></g><defs><clipPath id="a"><path fill="#fff" d="M0 0h16v16H0z"/></clipPath></defs></svg>