<svg width="20" height="20" fill="none" xmlns="http://www.w3.org/2000/svg"><path d="M13.492 1.667H6.509c-3.034 0-4.842 1.808-4.842 4.841v6.975c0 3.042 1.808 4.85 4.842 4.85h6.975c3.033 0 4.841-1.808 4.841-4.841V6.508c.009-3.033-1.8-4.841-4.833-4.841ZM10 13.233A3.236 3.236 0 0 1 6.767 10 3.236 3.236 0 0 1 10 6.766 3.236 3.236 0 0 1 13.234 10 3.236 3.236 0 0 1 10 13.233Zm4.934-7.5c-.042.1-.1.192-.175.275a.963.963 0 0 1-.275.175.83.83 0 0 1-.909-.175.963.963 0 0 1-.175-.275.83.83 0 0 1-.066-.316.83.83 0 0 1 .066-.317.86.86 0 0 1 .175-.275.832.832 0 0 1 .909-.175c.05.016.1.041.15.075.041.025.083.067.125.1a.86.86 0 0 1 .175.275.83.83 0 0 1 .066.317.83.83 0 0 1-.066.316Z" fill="#292D32" opacity=".3"/></svg>