<svg width="20" height="20" fill="none" xmlns="http://www.w3.org/2000/svg"><path d="M6.516 17.508c7.076 0 10.945-5.862 10.945-10.945 0-.167-.003-.332-.01-.497a7.828 7.828 0 0 0 1.918-1.992 7.674 7.674 0 0 1-2.209.605 3.861 3.861 0 0 0 1.692-2.127c-.744.44-1.567.76-2.443.933a3.847 3.847 0 0 0-6.555 3.508 10.922 10.922 0 0 1-7.93-4.019 3.838 3.838 0 0 0-.52 1.934c0 1.334.678 2.513 1.71 3.202a3.817 3.817 0 0 1-1.741-.481v.049a3.848 3.848 0 0 0 3.086 3.771 3.859 3.859 0 0 1-1.738.066 3.851 3.851 0 0 0 3.594 2.672 7.718 7.718 0 0 1-4.778 1.647c-.31 0-.617-.018-.918-.054a10.89 10.89 0 0 0 5.897 1.728" fill="#000" opacity=".3"/></svg>